<svg xmlns="http://www.w3.org/2000/svg" viewBox="0 0 24 24" aria-hidden="true">
  <!-- Slack octothorpe — official brand colors -->
  <path fill="#E01E5A" d="M5.042 15.165a2.528 2.528 0 0 1-2.52 2.523A2.528 2.528 0 0 1 0 15.165a2.527 2.527 0 0 1 2.522-2.52h2.52v2.52z"/>
  <path fill="#36C5F0" d="M6.313 15.165a2.527 2.527 0 0 1 2.521-2.52 2.527 2.527 0 0 1 2.521 2.52v6.313A2.528 2.528 0 0 1 8.834 24a2.528 2.528 0 0 1-2.521-2.522v-6.313z"/>
  <path fill="#2EB67D" d="M8.834 5.042a2.528 2.528 0 0 1-2.521-2.52A2.528 2.528 0 0 1 8.834 0a2.528 2.528 0 0 1 2.521 2.522v2.52H8.834V5.042z"/>
  <path fill="#ECB22E" d="M8.834 11.355a2.528 2.528 0 0 1 2.521 2.521 2.528 2.528 0 0 1-2.521 2.521H2.522A2.528 2.528 0 0 1 0 13.876a2.528 2.528 0 0 1 2.522-2.521h6.312z"/>
  <path fill="#ECB22E" d="M18.956 5.042a2.528 2.528 0 0 1 2.522-2.52A2.528 2.528 0 0 1 24 5.042a2.528 2.528 0 0 1-2.522 2.52h-2.522V5.042z"/>
  <path fill="#E01E5A" d="M18.956 11.355a2.528 2.528 0 0 1-2.522 2.521 2.528 2.528 0 0 1-2.521-2.521V5.042a2.528 2.528 0 0 1 2.521-2.52 2.528 2.528 0 0 1 2.522 2.52v6.313z"/>
  <path fill="#36C5F0" d="M13.876 18.956a2.528 2.528 0 0 1 2.521 2.522A2.528 2.528 0 0 1 13.876 24a2.528 2.528 0 0 1-2.521-2.522v-2.522h2.521z"/>
  <path fill="#2EB67D" d="M13.876 12.643a2.528 2.528 0 0 1-2.521-2.521 2.528 2.528 0 0 1 2.521-2.521h6.313A2.528 2.528 0 0 1 24 10.122a2.528 2.528 0 0 1-2.522 2.521h-6.313z"/>
</svg>
